<svg width="24" height="23" viewBox="0 0 24 23" fill="none" xmlns="http://www.w3.org/2000/svg">
<rect x="0.537109" y="0.125977" width="22.5976" height="22.5298" rx="11.2649" fill="#CAFF33"/>
<path fill-rule="evenodd" clip-rule="evenodd" d="M11.8382 7.93848C12.0512 7.93848 12.2239 8.1102 12.2239 8.32203V11.0069L14.9236 11.0069C15.1366 11.0069 15.3092 11.1786 15.3092 11.3904C15.3092 11.6023 15.1366 11.774 14.9236 11.774H12.2239V14.4588C12.2239 14.6707 12.0512 14.8424 11.8382 14.8424C11.6252 14.8424 11.4525 14.6707 11.4525 14.4588V11.774H8.75286C8.53986 11.774 8.36719 11.6023 8.36719 11.3904C8.36719 11.1786 8.53986 11.0069 8.75286 11.0069L11.4525 11.0069V8.32203C11.4525 8.1102 11.6252 7.93848 11.8382 7.93848Z" fill="#1A1A1A"/>
</svg>
