<svg width="21" height="22" viewBox="0 0 21 22" fill="none" xmlns="http://www.w3.org/2000/svg">
<path d="M20.3432 13.6184C18.9696 19.0977 13.389 22.4321 7.8787 21.066C2.37103 19.6999 -0.982045 14.15 0.391901 8.67094C1.76488 3.19098 7.34519 -0.143989 12.8538 1.22209C18.3638 2.58816 21.7165 8.13877 20.3429 13.6184H20.3432Z" fill="#262626"/>
<path fill-rule="evenodd" clip-rule="evenodd" d="M13.4641 9.95619C13.6028 9.03293 12.8959 8.53661 11.9294 8.20551L12.2429 6.95484L11.4772 6.76512L11.172 7.98283C10.971 7.93296 10.7643 7.8859 10.5589 7.83929L10.8663 6.61355L10.1012 6.42383L9.78751 7.67406C9.62093 7.63633 9.45741 7.59904 9.29869 7.55979L9.29956 7.55589L8.24387 7.29375L8.04024 8.10685C8.04024 8.10685 8.6082 8.2363 8.59621 8.24432C8.90624 8.3213 8.96249 8.52533 8.9529 8.68709L8.59577 10.1119C8.61714 10.1173 8.64483 10.1251 8.67535 10.1372L8.59468 10.1173L8.09387 12.1132C8.05594 12.2069 7.95979 12.3474 7.74307 12.294C7.7507 12.3051 7.18666 12.1559 7.18666 12.1559L6.80664 13.0276L7.80302 13.2745C7.9155 13.3026 8.0266 13.3314 8.13649 13.3599L8.13658 13.3599C8.20773 13.3784 8.27836 13.3967 8.34853 13.4146L8.03173 14.6798L8.79636 14.8695L9.11031 13.618C9.31897 13.6744 9.52173 13.7264 9.72014 13.7754L9.40748 15.0211L10.173 15.2108L10.4898 13.9482C11.7951 14.1939 12.7769 14.0948 13.1896 12.9209C13.5225 11.9755 13.1732 11.4302 12.4865 11.0744C12.9866 10.9592 13.3634 10.632 13.4639 9.95619H13.4641ZM11.7136 12.3951C11.4963 13.2628 10.1304 12.9038 9.50598 12.7396L9.5059 12.7396C9.45001 12.7249 9.40007 12.7118 9.35742 12.7013L9.77778 11.0254C9.82993 11.0383 9.89364 11.0526 9.96582 11.0687C10.6118 11.2128 11.9357 11.5083 11.7139 12.3951H11.7136ZM10.0955 10.291C10.6165 10.4292 11.7522 10.7305 11.9501 9.94233C12.1523 9.13596 11.048 8.89292 10.5087 8.77422C10.448 8.76088 10.3945 8.74911 10.3508 8.73828L9.96973 10.2583C10.0058 10.2672 10.0481 10.2784 10.0955 10.291Z" fill="#CAFF33"/>
</svg>
