<svg width="22" height="22" viewBox="0 0 22 22" fill="none" xmlns="http://www.w3.org/2000/svg">
<path fill-rule="evenodd" clip-rule="evenodd" d="M11.0247 21.372C16.7047 21.372 21.3093 16.7928 21.3093 11.144C21.3093 5.49524 16.7047 0.916016 11.0247 0.916016C5.34477 0.916016 0.740234 5.49524 0.740234 11.144C0.740234 16.7928 5.34477 21.372 11.0247 21.372Z" fill="#262626"/>
<path fill-rule="evenodd" clip-rule="evenodd" d="M10.1228 6.42383C10.6877 6.42383 11.2504 6.42383 11.8152 6.42383C11.782 6.80382 11.7467 7.18587 11.7156 7.56586C12.3738 7.61336 13.0155 7.82401 13.5928 8.13584C13.3436 8.75952 13.0923 9.3832 12.8411 10.0069C12.3551 9.59591 11.7156 9.36874 11.0781 9.377C10.9182 9.38113 10.752 9.41211 10.6191 9.50298C10.5319 9.56287 10.4675 9.6558 10.4489 9.75906C10.4343 9.84166 10.4385 9.9346 10.4842 10.0089C10.5361 10.0915 10.6274 10.1411 10.7188 10.1721C10.9057 10.2382 11.1071 10.2423 11.3023 10.263C11.7613 10.3187 12.2222 10.3972 12.6563 10.5603C12.9927 10.6884 13.3145 10.8804 13.545 11.1613C13.7631 11.4194 13.8897 11.7457 13.9375 12.0803C13.9936 12.4665 13.977 12.8671 13.8565 13.243C13.7631 13.5445 13.6032 13.8254 13.3955 14.0628C12.9657 14.5585 12.3344 14.8559 11.6865 14.9323C11.7073 15.3391 11.7322 15.7439 11.755 16.1507C11.2193 16.1507 10.6856 16.1507 10.1519 16.1507C10.1727 15.748 10.1997 15.3453 10.2184 14.9426C9.78851 14.9281 9.36281 14.8332 8.96203 14.6824C8.57372 14.5358 8.20409 14.3416 7.85938 14.1145C8.11272 13.466 8.36606 12.8176 8.62148 12.167C8.91012 12.4087 9.21745 12.6338 9.55386 12.8052C9.91518 12.989 10.316 13.1067 10.723 13.1108C10.9161 13.1129 11.1154 13.1025 11.2982 13.0365C11.4103 12.9952 11.5204 12.9229 11.5702 12.8093C11.6221 12.6895 11.618 12.5388 11.5391 12.4314C11.483 12.3591 11.4041 12.3095 11.321 12.2744C11.2089 12.229 11.0926 12.2042 10.9742 12.1856C10.5382 12.1154 10.1 12.0576 9.67845 11.9213C9.33997 11.8118 9.00979 11.659 8.73984 11.4236C8.56956 11.2769 8.42836 11.0973 8.32868 10.8949C8.17917 10.5934 8.1231 10.2526 8.12725 9.91808C8.12725 9.54428 8.20409 9.16429 8.39098 8.83593C8.55295 8.54268 8.80006 8.30312 9.07832 8.11932C9.41473 7.89835 9.79059 7.74759 10.1727 7.62575C10.1561 7.22511 10.1394 6.82447 10.1228 6.42383Z" fill="#CAFF33"/>
</svg>
