<svg width="22" height="22" viewBox="0 0 22 22" fill="none" xmlns="http://www.w3.org/2000/svg">
<path d="M21.2672 11.1447C21.2672 16.7638 16.687 21.3189 11.037 21.3189C5.38688 21.3189 0.806641 16.7638 0.806641 11.1447C0.806641 5.52578 5.38688 0.970703 11.037 0.970703C16.6869 0.970703 21.2672 5.52578 21.2672 11.1447Z" fill="#262626"/>
<g opacity="0.8">
<path d="M11.0046 6.42383L10.9414 6.63742V12.8354L11.0046 12.8982L13.8975 11.1975L11.0046 6.42383Z" fill="#CAFF33"/>
<path d="M11.0043 6.42383L8.11133 11.1975L11.0043 12.8982V9.88985V6.42383Z" fill="#CAFF33"/>
<path d="M11.0044 13.8345L10.9688 13.8777V16.0856L11.0044 16.189L13.899 12.1348L11.0044 13.8345Z" fill="#CAFF33"/>
<path d="M11.0043 16.189V13.8345L8.11133 12.1348L11.0043 16.189Z" fill="#CAFF33"/>
<path d="M11.0039 12.8979L13.8968 11.1973L11.0039 9.88965V12.8979Z" fill="#CAFF33"/>
<path d="M8.11133 11.1973L11.0042 12.898V9.88965L8.11133 11.1973Z" fill="#CAFF33"/>
</g>
</svg>
