<svg width="21" height="22" viewBox="0 0 21 22" fill="none" xmlns="http://www.w3.org/2000/svg">
<path d="M20.9234 11.1447C20.9234 16.7638 16.3432 21.3189 10.6932 21.3189C5.04313 21.3189 0.462891 16.7638 0.462891 11.1447C0.462891 5.52578 5.04313 0.970703 10.6932 0.970703C16.3432 0.970703 20.9234 5.52578 20.9234 11.1447Z" fill="#262626"/>
<path d="M13.5665 15.3947L13.3305 14.3287C13.3171 14.266 13.2834 14.219 13.2293 14.1879C13.1709 14.1565 13.1125 14.1522 13.0541 14.1745L13.0203 14.1879L12.9393 14.208C12.9033 14.2168 12.8617 14.2269 12.8146 14.2381C12.7673 14.2493 12.7124 14.2604 12.6494 14.2716C12.5867 14.2828 12.52 14.2929 12.4505 14.3018C12.3809 14.3106 12.3057 14.3186 12.2248 14.3253C12.1438 14.3319 12.0629 14.3353 11.982 14.3353C11.4111 14.3353 10.8975 14.1822 10.4413 13.876C9.98507 13.5697 9.64907 13.1551 9.43335 12.6322H12.0425C12.0921 12.6322 12.137 12.6155 12.1773 12.5819C12.2179 12.5484 12.2426 12.5071 12.2514 12.4578L12.4133 11.7068C12.4268 11.6399 12.4133 11.5795 12.3729 11.5258C12.328 11.4721 12.2717 11.4452 12.2043 11.4452H9.10977C9.09629 11.1413 9.09629 10.9066 9.10977 10.7412H12.4C12.5215 10.7412 12.5933 10.6831 12.6158 10.5669L12.7776 9.80248C12.791 9.73992 12.7755 9.68186 12.7304 9.62817C12.6901 9.57453 12.6339 9.54759 12.5619 9.54759H9.40645C9.6312 9.04695 9.96828 8.65359 10.4178 8.36749C10.8673 8.08131 11.3752 7.93831 11.9416 7.93831C11.9596 7.92938 12.0259 7.93164 12.1404 7.94503C12.255 7.95837 12.3203 7.964 12.336 7.96175C12.3515 7.95954 12.4102 7.96628 12.5112 7.98183C12.6124 7.99747 12.663 8.00531 12.663 8.00531L12.781 8.02875C12.8147 8.03552 12.8406 8.04101 12.8585 8.04554L12.8855 8.05221C12.9439 8.07018 12.9977 8.06454 13.0473 8.03552C13.0968 8.00637 13.1283 7.96285 13.1418 7.90475L13.4318 6.83862C13.4452 6.78049 13.4384 6.72685 13.4116 6.67769C13.3711 6.62396 13.3261 6.59045 13.2766 6.57708C12.8631 6.47429 12.427 6.42285 11.9686 6.42285C10.9616 6.42285 10.0616 6.70902 9.26823 7.28113C8.47487 7.85329 7.92758 8.60882 7.62642 9.54752H6.96573C6.90277 9.54752 6.85112 9.5676 6.81064 9.60783C6.77029 9.64802 6.75 9.69945 6.75 9.76206V10.5265C6.75 10.589 6.77021 10.6405 6.81064 10.6806C6.85114 10.7209 6.90286 10.7409 6.96573 10.7409H7.41749C7.40391 10.9556 7.40176 11.1901 7.41069 11.445H6.96573C6.9073 11.445 6.85674 11.4662 6.81404 11.5087C6.77137 11.5512 6.75 11.6015 6.75 11.6595V12.4172C6.75 12.4754 6.77137 12.5256 6.81404 12.5682C6.85677 12.6106 6.9073 12.6317 6.96573 12.6317H7.60627C7.88944 13.6196 8.42438 14.4053 9.21099 14.9886C9.99764 15.5721 10.9168 15.8637 11.9686 15.8637C12.0541 15.8637 12.1405 15.8616 12.2282 15.857C12.3161 15.8525 12.398 15.8457 12.4744 15.8369C12.5508 15.828 12.6261 15.8181 12.7003 15.8068C12.7744 15.7956 12.8419 15.7846 12.9025 15.7732C12.9632 15.7621 13.0205 15.751 13.0744 15.7399C13.1284 15.7286 13.1767 15.7164 13.2194 15.7029C13.2621 15.6897 13.2979 15.6795 13.3272 15.6729C13.3565 15.6662 13.3801 15.6582 13.3979 15.6495L13.4317 15.6427C13.4812 15.6249 13.5194 15.5924 13.5463 15.5454C13.5733 15.4987 13.58 15.4484 13.5665 15.3947Z" fill="#CAFF33"/>
</svg>
