<svg width="101.29" height="26" viewBox="0 0 101.29 26" fill="none" xmlns="http://www.w3.org/2000/svg">
<path d="M6.5013 13.6751L13.0013 7.17513L19.5013 13.6751L13.0013 20.1751L6.5013 13.6751Z" fill="#CAFF33"/>
<path d="M23.8346 9.3418L19.5013 13.6751V7.17513H13.0013L17.3346 2.8418H23.8346V9.3418Z" fill="#CAFF33"/>
<path d="M23.8346 18.0085L19.5013 13.6751V20.1751H13.0013L17.3346 24.5085H23.8346V18.0085Z" fill="#CAFF33"/>
<path d="M2.16797 18.0085L6.5013 13.6751V20.1751H13.0013L8.66797 24.5085H2.16797L2.16797 18.0085Z" fill="#CAFF33"/>
<path d="M2.16797 9.3418L6.5013 13.6751V7.17513H13.0013L8.66797 2.8418H2.16797L2.16797 9.3418Z" fill="#CAFF33"/>
<path d="M38.5803 8.04199L34.586 15.0951V19.7414H32.7034V15.0951L28.709 8.04199H30.8535L33.6528 13.2232L36.4358 8.04199H38.5803Z" fill="white"/>
<path d="M41.9309 19.9587C40.7304 19.9587 39.71 19.5353 38.8696 18.6884C38.0293 17.8416 37.6091 16.7998 37.6091 15.563C37.6091 14.3262 38.0293 13.2844 38.8696 12.4376C39.71 11.5908 40.7304 11.1674 41.9309 11.1674C43.1423 11.1674 44.1627 11.5908 44.9921 12.4376C45.8325 13.2844 46.2527 14.3262 46.2527 15.563C46.2527 16.7998 45.8325 17.8416 44.9921 18.6884C44.1627 19.5353 43.1423 19.9587 41.9309 19.9587ZM40.1138 17.4516C40.6049 17.953 41.2106 18.2037 41.9309 18.2037C42.6512 18.2037 43.2569 17.953 43.748 17.4516C44.2391 16.9502 44.4847 16.3207 44.4847 15.563C44.4847 14.8054 44.2391 14.1758 43.748 13.6744C43.2569 13.173 42.6512 12.9223 41.9309 12.9223C41.2106 12.9223 40.6049 13.173 40.1138 13.6744C39.6227 14.1758 39.3771 14.8054 39.3771 15.563C39.3771 16.3207 39.6227 16.9502 40.1138 17.4516Z" fill="white"/>
<path d="M53.3682 11.3847H55.1362V19.7414H53.3682V18.6717C52.8334 19.5297 51.9876 19.9587 50.8307 19.9587C49.8922 19.9587 49.1337 19.6522 48.5553 19.0394C47.9768 18.4266 47.6876 17.5854 47.6876 16.5157V11.3847H49.4556V16.3318C49.4556 16.9558 49.6193 17.4349 49.9467 17.7692C50.2742 18.1035 50.7216 18.2706 51.2891 18.2706C51.9112 18.2706 52.4132 18.0756 52.7952 17.6856C53.1772 17.2845 53.3682 16.6773 53.3682 15.8639V11.3847Z" fill="white"/>
<path d="M58.9716 12.7886C59.419 11.7524 60.2594 11.2343 61.4926 11.2343V13.1897C60.8159 13.1452 60.2266 13.3123 59.7246 13.6911C59.2226 14.0588 58.9716 14.6716 58.9716 15.5296V19.7414H57.2036V11.3847H58.9716V12.7886Z" fill="white"/>
<path d="M69.6581 13.6744C70.1601 13.9418 70.553 14.3095 70.8368 14.7775C71.1205 15.2455 71.2624 15.7859 71.2624 16.3987C71.2624 17.3569 70.9295 18.1536 70.2638 18.7887C69.5981 19.4238 68.785 19.7414 67.8246 19.7414H62.9135V8.04199H67.4645C68.403 8.04199 69.1943 8.35398 69.8382 8.97794C70.493 9.59077 70.8204 10.3596 70.8204 11.2844C70.8204 12.2983 70.433 13.095 69.6581 13.6744ZM67.4645 9.84704H64.7961V12.9223H67.4645C67.8792 12.9223 68.2284 12.7775 68.5122 12.4878C68.7959 12.1869 68.9378 11.8192 68.9378 11.3847C68.9378 10.9501 68.7959 10.588 68.5122 10.2983C68.2284 9.99746 67.8792 9.84704 67.4645 9.84704ZM67.8246 17.9363C68.2612 17.9363 68.6268 17.7803 68.9214 17.4684C69.227 17.1452 69.3798 16.7553 69.3798 16.2984C69.3798 15.8416 69.227 15.4572 68.9214 15.1452C68.6268 14.8221 68.2612 14.6605 67.8246 14.6605H64.7961V17.9363H67.8246Z" fill="white"/>
<path d="M79.3532 11.3847H81.1212V19.7414H79.3532V18.538C78.6875 19.4851 77.7325 19.9587 76.4884 19.9587C75.3643 19.9587 74.4039 19.5353 73.6072 18.6884C72.8105 17.8305 72.4122 16.7887 72.4122 15.563C72.4122 14.3262 72.8105 13.2844 73.6072 12.4376C74.4039 11.5908 75.3643 11.1674 76.4884 11.1674C77.7325 11.1674 78.6875 11.6354 79.3532 12.5713V11.3847ZM74.9168 17.4851C75.4079 17.9865 76.0245 18.2372 76.7667 18.2372C77.5088 18.2372 78.1254 17.9865 78.6165 17.4851C79.1076 16.9725 79.3532 16.3318 79.3532 15.563C79.3532 14.7942 79.1076 14.1591 78.6165 13.6577C78.1254 13.1452 77.5088 12.8889 76.7667 12.8889C76.0245 12.8889 75.4079 13.1452 74.9168 13.6577C74.4257 14.1591 74.1801 14.7942 74.1801 15.563C74.1801 16.3318 74.4257 16.9725 74.9168 17.4851Z" fill="white"/>
<path d="M87.4874 11.1674C88.4259 11.1674 89.1844 11.4738 89.7628 12.0866C90.3413 12.6995 90.6305 13.5407 90.6305 14.6104V19.7414H88.8625V14.7942C88.8625 14.1702 88.6988 13.6911 88.3714 13.3569C88.0439 13.0226 87.5965 12.8555 87.029 12.8555C86.4069 12.8555 85.9049 13.056 85.5229 13.4571C85.1409 13.8471 84.9499 14.4488 84.9499 15.2622V19.7414H83.1819V11.3847H84.9499V12.4543C85.4847 11.5964 86.3305 11.1674 87.4874 11.1674Z" fill="white"/>
<path d="M101.292 19.7414H99.0496L94.5313 14.1758V19.7414H92.6488V8.04199H94.5313V13.29L98.8859 8.04199H101.129L96.4958 13.7413L101.292 19.7414Z" fill="white"/>
</svg>
