<svg width="23" height="23" viewBox="0 0 23 23" fill="none" xmlns="http://www.w3.org/2000/svg">
<rect x="0.09375" y="0.208984" width="22.5976" height="22.5298" rx="11.2649" fill="#CAFF33"/>
<path fill-rule="evenodd" clip-rule="evenodd" d="M13.3685 6.71153C13.1946 6.8978 13.2054 7.18902 13.3927 7.36199L14.6888 8.55891L9.38812 8.55891C9.13252 8.55891 8.92531 8.76498 8.92531 9.01917C8.92531 9.27337 9.13252 9.47943 9.38812 9.47943L14.6888 9.47943L13.3927 10.6764C13.2054 10.8493 13.1946 11.1405 13.3685 11.3268C13.5424 11.5131 13.8352 11.5239 14.0225 11.3509L16.1823 9.35645C16.2766 9.26936 16.3302 9.14716 16.3302 9.01917C16.3302 8.89119 16.2766 8.76898 16.1823 8.6819L14.0225 6.68744C13.8352 6.51447 13.5424 6.52526 13.3685 6.71153ZM9.41872 11.621C9.2448 11.4347 8.95197 11.4239 8.76467 11.5969L6.60492 13.5913C6.51062 13.6784 6.45703 13.8006 6.45703 13.9286C6.45703 14.0566 6.51062 14.1788 6.60492 14.2659L8.76467 16.2603C8.95197 16.4333 9.2448 16.4225 9.41872 16.2363C9.59264 16.05 9.5818 15.7588 9.3945 15.5858L8.09838 14.3889H13.3991C13.6547 14.3889 13.8619 14.1828 13.8619 13.9286C13.8619 13.6744 13.6547 13.4683 13.3991 13.4683H8.09838L9.3945 12.2714C9.5818 12.0985 9.59264 11.8072 9.41872 11.621Z" fill="#1C1C1C"/>
</svg>
