<svg width="44" height="44" viewBox="0 0 44 44" fill="none" xmlns="http://www.w3.org/2000/svg">
<rect width="44" height="44" rx="22" fill="#CAFF33"/>
<path d="M18.2918 30.1256C25.8371 30.1256 29.9652 23.8729 29.9652 18.4522C29.9652 18.2764 29.9613 18.0967 29.9535 17.9209C30.7566 17.3402 31.4496 16.6208 32 15.7967C31.2521 16.1294 30.458 16.3468 29.6449 16.4412C30.5011 15.928 31.1421 15.1218 31.4492 14.1721C30.6438 14.6494 29.763 14.9861 28.8445 15.1678C28.2257 14.5102 27.4075 14.0749 26.5164 13.929C25.6253 13.7831 24.711 13.9348 23.9148 14.3607C23.1186 14.7866 22.4848 15.4629 22.1115 16.285C21.7382 17.1072 21.6462 18.0295 21.8496 18.9092C20.2187 18.8274 18.6233 18.4037 17.1667 17.6657C15.71 16.9277 14.4247 15.8918 13.3941 14.6252C12.8703 15.5283 12.71 16.597 12.9459 17.614C13.1817 18.6311 13.7959 19.5201 14.6637 20.1006C14.0122 20.0799 13.375 19.9045 12.8047 19.5889V19.6397C12.8041 20.5874 13.1317 21.5061 13.7319 22.2396C14.3321 22.9731 15.1678 23.4761 16.0969 23.6631C15.4934 23.8282 14.86 23.8523 14.2457 23.7334C14.5079 24.5485 15.018 25.2614 15.7048 25.7726C16.3916 26.2838 17.2209 26.5678 18.077 26.585C16.6237 27.7265 14.8285 28.3457 12.9805 28.3428C12.6527 28.3423 12.3253 28.3222 12 28.2826C13.8774 29.4871 16.0613 30.1268 18.2918 30.1256Z" fill="#262626"/>
</svg>
